<?xml version="1.0" standalone="no"?><!DOCTYPE svg PUBLIC "-//W3C//DTD SVG 1.1//EN" "http://www.w3.org/Graphics/SVG/1.1/DTD/svg11.dtd"><svg t="1584257591241" class="icon" viewBox="0 0 1024 1024" version="1.1" xmlns="http://www.w3.org/2000/svg" p-id="9364" xmlns:xlink="http://www.w3.org/1999/xlink" width="200" height="200"><defs><style type="text/css"></style></defs><path d="M998.4 755.0976C998.4 757.248 997.8624 758.8864 997.7344 760.9856 990.72 947.4304 753.28 1023.8464 753.28 1023.8464 753.28 1023.8464 519.296 947.328 512.6144 760.6784 512.512 758.7072 512 757.1712 512 755.0976 512 754.7392 512.1024 754.4064 512.1024 754.0736 512.1024 753.6384 512 753.2288 512 752.768L512.2304 752.768C513.5104 679.5264 574.0544 614.272 648.8064 614.272 692.0192 614.272 730.112 636.4672 755.2 669.056 780.288 636.4672 818.3808 614.272 861.5936 614.272 936.3456 614.272 996.8896 679.5264 998.144 752.768L998.4 752.768C998.4 753.2288 998.2976 753.6128 998.2976 754.0736 998.2976 754.4064 998.4 754.7392 998.4 755.0976ZM947.2 769.3824 946.9952 769.3824C945.9968 714.4448 919.808 665.6 870.4 665.6 836.2752 665.6 774.9888 707.7632 755.2 732.1856 735.4112 707.7632 674.1248 665.6 640 665.6 596.1728 665.6 564.4032 714.4448 563.3792 769.3824L563.2 769.3824C563.2 769.7152 563.2768 770.0224 563.2768 770.3552 563.2768 770.6112 563.2 770.8672 563.2 771.1232 563.2 772.6592 563.6096 773.8368 563.6864 775.3216 568.96 915.3024 753.6896 972.6976 753.6896 972.6976 753.6896 972.6976 941.1328 915.3536 946.6624 775.5264 946.7648 773.9648 947.2 772.736 947.2 771.1232 947.2 770.8672 947.1232 770.6112 947.1232 770.3552 947.1232 769.9968 947.2 769.7152 947.2 769.3824ZM621.6448 544.128 620.0064 546.048C619.9552 546.1248 619.904 546.176 619.8528 546.2528 618.2912 551.168 618.0096 557.0048 618.4704 563.2L563.2 563.2 563.2 513.8688C623.6928 474.8288 665.6 391.3728 665.6 294.4 665.6 160.0768 585.3696 51.2 486.4 51.2 387.4304 51.2 307.2 160.0768 307.2 294.4 307.2 391.3728 349.1072 474.8288 409.6 513.8688L409.6 631.6032C345.6768 674.6368 176.9984 788.7616 102.4 844.8 73.1648 906.6752 80.7936 960.7936 102.4 972.8 134.5024 972.8 247.0144 972.8 358.4 972.8 393.5232 972.8 428.4416 972.8 460.8 972.8L460.8 1024C278.6048 1024 106.1888 1024 106.1888 1024L106.1888 1024C98.2272 1024 93.312 1024 91.9552 1024 45.7984 1024 28.288 989.696 26.8032 929.792 25.984 924.0576 25.6 918.1952 25.7024 912.1792L25.8048 903.936C25.856 898.9952 25.9072 893.9776 26.0608 888.9344 26.0864 881.408 26.5472 873.0624 28.2368 863.9232 28.7744 860.4928 29.4144 857.0624 30.2336 853.6064 39.9872 813.0048 68.5568 785.6896 94.5408 763.2384 130.2016 732.4672 172.2624 706.3552 230.9632 678.5792 259.072 665.3184 267.008 648.8064 304.1536 635.8784 320.1536 630.3488 336.7936 613.0176 346.6496 591.7184 354.4064 574.9248 356.736 558.1824 352.9472 546.2528 352.896 546.176 352.8448 546.1248 352.768 546.048L351.1552 544.128C306.8416 490.4192 271.616 442.752 254.8992 359.9872 241.5104 293.504 243.4304 230.7072 260.608 173.312 287.0016 85.3504 343.936 28.1344 425.2672 7.9104 437.5552 4.8384 449.5104 2.688 461.312 1.4336L461.312 0 486.4 0.0256 511.488 0 511.488 1.4336C523.2896 2.688 535.2448 4.8384 547.5328 7.9104 628.864 28.1344 685.7984 85.3504 712.1664 173.312 729.3696 230.7072 731.2896 293.504 717.9008 359.9872 701.184 442.752 665.9328 490.4192 621.6448 544.128Z" p-id="9365" fill="#2D6A65"></path></svg>