<?xml version="1.0" standalone="no"?><!DOCTYPE svg PUBLIC "-//W3C//DTD SVG 1.1//EN" "http://www.w3.org/Graphics/SVG/1.1/DTD/svg11.dtd"><svg t="1584257750940" class="icon" viewBox="0 0 1024 1024" version="1.1" xmlns="http://www.w3.org/2000/svg" p-id="16427" xmlns:xlink="http://www.w3.org/1999/xlink" width="200" height="200"><defs><style type="text/css"></style></defs><path d="M512 914.85509C734.490722 914.85509 914.85509 734.490722 914.85509 512 914.85509 289.509278 734.490722 109.14491 512 109.14491 289.509278 109.14491 109.14491 289.509278 109.14491 512 109.14491 734.490722 289.509278 914.85509 512 914.85509ZM512 64.383234C759.211913 64.383234 959.616766 264.788087 959.616766 512 959.616766 759.211913 759.211913 959.616766 512 959.616766 264.788087 959.616766 64.383234 759.211913 64.383234 512 64.383234 264.788087 264.788087 64.383234 512 64.383234Z" p-id="16428" fill="#2D6A65"></path><path d="M496.174357 550.206481C492.124222 546.156346 489.619162 540.561136 489.619162 534.380838L489.619162 265.810778C489.619162 253.450183 499.639404 243.42994 512 243.42994 524.360596 243.42994 534.380838 253.450183 534.380838 265.810778L534.380838 512 691.046707 512C703.407302 512 713.427545 522.020243 713.427545 534.380838 713.427545 546.741434 703.407302 556.761677 691.046707 556.761677L512 556.761677C505.819702 556.761677 500.224493 554.256616 496.174357 550.206481L496.174357 550.206481Z" p-id="16429" fill="#2D6A65"></path></svg>