<?xml version="1.0" standalone="no"?><!DOCTYPE svg PUBLIC "-//W3C//DTD SVG 1.1//EN" "http://www.w3.org/Graphics/SVG/1.1/DTD/svg11.dtd"><svg t="1584258018976" class="icon" viewBox="0 0 1024 1024" version="1.1" xmlns="http://www.w3.org/2000/svg" p-id="18616" xmlns:xlink="http://www.w3.org/1999/xlink" width="200" height="200"><defs><style type="text/css"></style></defs><path d="M262.887 530.005c-27.502 0-49.822 22.688-49.822 50.711s22.321 50.711 49.822 50.711 49.793-22.688 49.793-50.711-22.321-50.711-49.793-50.711zM910.092 315.967c0.398-18.734-4.569-62.485-60.554-77.724l-562.123-114.607c-41.177 0-74.688 34.124-74.688 76.067v102.006l-24.896-0.031c-41.055 0.185-74.412 34.186-74.412 76.036v405.664c0 41.973 33.511 76.098 74.719 76.098h647.756c41.206 0 74.719-34.124 74.719-76.067l-0.522-467.444zM262.518 199.703c0-13.245 10.026-24.13 22.75-25.264l549.338 113.228c0.215 0.123-4.109 14.227-24.037 13.95h-548.049v-101.915zM860.789 783.411c0 13.981-11.161 25.356-24.927 25.356h-647.726c-13.735 0-24.927-11.374-24.927-25.356v-405.695c0-13.981 11.161-25.356 24.927-25.356h622.554c24.467 0 50.129-8.462 50.129-25.264v456.315z" p-id="18617" fill="#2D6A65"></path></svg>