<?xml version="1.0" standalone="no"?><!DOCTYPE svg PUBLIC "-//W3C//DTD SVG 1.1//EN" "http://www.w3.org/Graphics/SVG/1.1/DTD/svg11.dtd"><svg t="1584264073307" class="icon" viewBox="0 0 1024 1024" version="1.1" xmlns="http://www.w3.org/2000/svg" p-id="1953" xmlns:xlink="http://www.w3.org/1999/xlink" width="200" height="200"><defs><style type="text/css"></style></defs><path d="M901.12 942.08H122.88c-22.528 0-40.96-18.432-40.96-40.96V122.88c0-22.528 18.432-40.96 40.96-40.96h573.44c11.264 0 20.48 9.216 20.48 20.48s-9.216 20.48-20.48 20.48H122.88v778.24h778.24v-381.44c0-11.264 9.216-20.48 20.48-20.48s20.48 9.216 20.48 20.48V901.12c0 22.528-18.432 40.96-40.96 40.96z" p-id="1954" fill="#2D6A65"></path><path d="M430.08 696.32c-11.264 0-22.016-4.096-29.696-12.288l-158.72-158.72c-8.192-8.192-8.192-20.992 0-29.184 8.192-8.192 20.992-8.192 29.184 0l158.72 158.72c0.512 0 0.512 0.512 1.024 0.512s1.536 0 2.56-1.536l320.512-320.512c8.192-8.192 20.992-8.192 29.184 0 8.192 8.192 8.192 20.992 0 29.184l-320.512 320.512c-8.192 8.192-18.944 12.8-30.208 13.312H430.08z" p-id="1955" fill="#2D6A65"></path></svg>