<?xml version="1.0" encoding="utf-8"?>
<!-- Generator: Adobe Illustrator 22.0.0, SVG Export Plug-In . SVG Version: 6.00 Build 0)  -->
<svg version="1.1" id="图层_1" xmlns="http://www.w3.org/2000/svg" xmlns:xlink="http://www.w3.org/1999/xlink" x="0px" y="0px"
	 viewBox="0 0 2000 2000" style="enable-background:new 0 0 2000 2000;" xml:space="preserve">
<style type="text/css">
	.st0{stroke:#000000;stroke-miterlimit:10;}
</style>
<g>
	<path class="st0" d="M349.5,1203.9c0.7,1.2,0.4,2.4,0.4,3.5c0,22.3,0.1,44.5-0.1,66.7c-0.1,12.6-3.1,24.8-6.9,36.8
		c-3.5,10.7-8.8,20.5-14.6,30c-3.1,5.1-7,9.7-11.1,14c-9.9,10.3-19.6,20.7-28.6,31.8c-4,4.9-7.4,10.4-11,15.6
		c-11.6,16.7-20.1,35-25.2,54.5c-3.7,13.9-5.9,28.2-6.2,42.8c-0.2,13.3,1.3,26.3,3.5,39.2c2,12,6.3,23.5,11.1,34.7
		c5.9,13.6,13.3,26.4,22.6,37.9c13.4,16.5,28.6,30.9,46.9,42.1c12.4,7.6,25.4,13.8,39.1,18.2c11.1,3.5,22.4,6.4,34.2,6.9
		c6.6,0.3,13.3,1.4,20,1.1c18.4-0.7,36.5-2.6,54-8.9c15.7-5.6,30.5-12.7,44.2-22.2c0.5-0.3,0.8-0.9,1.8-0.6
		c-2.3,4.9-5.6,9.1-8.9,13.2c-12.8,15.6-27.5,29-44.4,40.1c-11.1,7.3-22.8,13.4-35.1,18.4c-13.6,5.6-27.7,9.6-42.1,12.2
		c-15.1,2.8-30.5,4-45.8,2.6c-19.5-1.9-38.5-5.8-57-12.9c-19.7-7.5-37.6-17.9-54-30.8c-12.7-10-24-21.5-33.8-34.5
		c-10.5-13.9-19-28.9-25.8-44.9c-6.4-15.1-10.4-30.9-13.4-47c-1.8-9.6-1.7-19.3-1.7-28.8c0-7.5-0.2-14.9,0.5-22.4s2.2-15,3.8-22.4
		c3.8-18.4,10.7-35.9,19.3-52.6c9.5-18.4,20.9-35.6,33.7-51.8c6.8-8.7,13.6-17.4,20.8-25.8c6.7-7.8,13.3-15.6,20.4-23.1
		c9.6-10.4,19.8-20.3,29.3-30.7c8.8-9.6,16.5-20.2,23.8-31.1c5.3-7.8,10.4-15.9,15-24.1c7.9-14.2,14.7-29,20.1-44.4
		C348.3,1206.2,348.4,1204.8,349.5,1203.9z"/>
	<g>
		<path class="st0" d="M564.2,1559.8c-1.3,8.3-3.7,16.5-6.6,24.3c-2.5,6.7-6.7,12.6-11.1,18.1c-12,15.3-27.9,26.6-44.8,35.1
			c-14.8,7.3-30.8,11.7-47,13.7c-5.6,0.7-11.4,1.5-16.9,1c-28-2.3-54.7-10.6-77.9-27.6c-14.9-11-27.7-24.7-37.9-40.8
			c-8.3-13.3-14.2-28-18.8-43.2c-3.5-11.6-4.4-23.7-6-35.7c-0.4-2.8,0.3-6,1-8.8c1.9,3.5,3.2,7.5,5.2,11
			c6.2,10.5,13.1,20.2,21.9,28.3c11.4,10.6,24.4,17.7,39.2,21.2c10.1,2.4,20.3,2.8,30.5,2.1c11.4-0.7,22.3-3.4,32.6-8.3
			c16.4-7.7,29.6-19.6,40.8-34.3c5.2-6.9,10.1-14.1,14.2-21.8c7.4-13.5,13.5-26.5,15.6-42.6c2.1-15.9,3-31.4,3.5-47.5
			c0.2-7.7-0.8-15.2-1.4-22.9c-0.3-4.7-1.2-9.2-1.9-13.9c-0.1-0.8-0.2-2.1,0.1-2.9c2.5,3.4,5.3,6.8,7.7,10.4
			c11.6,17.2,22.7,34.8,32,53.4s16.5,38.1,20.3,58.7c2.6,13.8,5.5,25.6,6.9,41.8C566.1,1539,566.4,1545.6,564.2,1559.8z"/>
	</g>
	<path class="st0" d="M465.7,1417.1c-0.5-4.1-1.3-8.1-2.5-12.1c-3.8-12.7-9.7-24.4-17.3-35.4c-12.2-17.7-27-33.2-42.1-48.4
		c-9.4-9.5-16.1-20.8-21.4-32.9c-4-9-7.4-18.2-8.6-28c-1-8-2.3-16.1-2.3-24.2c0.1-14.7,0.1-29.4-0.1-44.1
		c-0.1-6.6-0.7-13.3,0.3-20.1c0.8,0.4,1,1.1,1.2,1.8c4.5,12.6,9.6,25,15.7,37c6.8,13.3,14.6,26.1,23.2,38.5
		c8.2,11.7,17.7,22.3,27.3,33c5.1,5.7,9.2,12.2,12.9,18.8c8.7,15.4,15,31.8,18,49.2c1.7,9.8,3.2,19.7,2.7,29.6
		c-0.6,12.3-2.7,24.5-5.9,36.6C466.6,1416.6,466.4,1417,465.7,1417.1z"/>
</g>
<path d="M834.9,1673.3h-38.8v-131.8c0-19.4-2.8-33-8.4-40.7c-7.9-9-21.4-13.6-40.4-13.6H700v186.1h-38.8v-364.7H700v134h47.2
	c58.4,0,87.6,33,87.6,98.9v131.8H834.9z"/>
<path d="M1043.8,1673.3h-87.6c-66.3,0-99.4-37.5-99.4-112.4v-118.3h38.8v118.3c0,27.1,6.2,45.9,18.5,56.2c9,6.5,23,9.7,42.1,9.7
	h48.9v-184.2h38.8L1043.8,1673.3L1043.8,1673.3z"/>
<path d="M1283.1,1556.9c0,34.9-10.7,64.6-32,89.2c-21.4,24.5-47.2,36.8-77.5,36.8s-56.2-12.3-77.5-36.8
	c-20.2-24.5-30.3-54.3-30.3-89.2s10.1-64.6,30.3-89.2c21.3-24.5,47.2-36.8,77.5-36.8s56.2,12.3,77.5,36.8
	C1272.4,1492.3,1283.1,1522,1283.1,1556.9z M1244.4,1556.9c0-22-7.3-40.7-21.9-56.2c-13.5-15.5-29.8-23.3-48.9-23.3
	s-35.4,7.8-48.9,23.3s-20.2,34.3-20.2,56.2c0,22,6.7,40.7,20.2,56.2s29.8,23.3,48.9,23.3s35.4-7.8,48.9-23.3
	C1237.1,1597.6,1244.4,1578.9,1244.4,1556.9z"/>
<path d="M1500.5,1673.3h-102.8c-23.6,0-44.4-9.7-62.4-29.1c-20.2-22-30.3-51-30.3-87.2s10.1-65.2,30.3-87.2
	c16.9-18.1,37.6-27.1,62.4-27.1h62.4v-129h40.4V1673.3z M1460.1,1626.7v-139.6h-60.7c-14.6,0-27,5.2-37.1,15.5
	c-12.4,12.9-18.5,31-18.5,54.3s6.2,41.4,18.5,54.3c10.1,10.4,22.5,15.5,37.1,15.5L1460.1,1626.7L1460.1,1626.7z"/>
<path d="M1709.5,1673.3h-87.6c-66.3,0-99.4-37.5-99.4-112.4v-118.3h38.8v118.3c0,27.1,6.2,45.9,18.5,56.2c9,6.5,23,9.7,42.1,9.7
	h48.9v-184.2h38.8v230.7H1709.5z"/>
<path d="M1915.1,1673.3h-40.4v-110.5c0-31-5.1-51.7-15.2-62c-7.9-9-23-13.6-45.5-13.6h-43.8v186.1h-38.8v-230.7h82.6
	c32.6,0,56.7,7.8,72.5,23.3c19.1,19.4,28.6,51.7,28.6,96.9L1915.1,1673.3L1915.1,1673.3z"/>
</svg>
