<?xml version="1.0" standalone="no"?><!DOCTYPE svg PUBLIC "-//W3C//DTD SVG 1.1//EN" "http://www.w3.org/Graphics/SVG/1.1/DTD/svg11.dtd"><svg t="1584446097902" class="icon" viewBox="0 0 1024 1024" version="1.1" xmlns="http://www.w3.org/2000/svg" p-id="7622" xmlns:xlink="http://www.w3.org/1999/xlink" width="128" height="128"><defs><style type="text/css"></style></defs><path d="M644.13032 303.583227c-32.955576-30.138414-71.279417-46.595224-126.650515-46.589085-52.300156 0-100.241029 15.406898-132.008546 43.493583-31.781844 28.091802-50.904367 68.50728-57.366545 121.320113l0.494257 0.061398c-0.160659 1.379417-0.252757 2.765997-0.252757 4.189416 0 19.6045 5.770424 37.684274 25.276686 35.757388 15.343453-1.515516 27.309996-40.96397 27.309996-40.96397 6.189979-39.432081 21.116947-77.05905 40.96397-95.583962 19.847024-18.529005 65.971527-27.309996 95.582939-27.309996 30.65723 0 74.483388 20.525476 95.582939 40.96397 21.100574 20.445658 31.112602 64.941058 27.309996 81.928964-6.043646 26.999934-59.075467 85.206614-68.273966 95.582939-20.974707 23.672142-31.729655 43.536562-40.96397 54.618968-12.582573 15.232936-22.940478 25.467021-40.96397 54.618968-18.817578 30.438243-14.754029 44.11166-14.594393 50.473555-0.159636 1.291412-0.240477 2.601244-0.240477 3.916193 0 18.506493-3.659343 27.539216 14.83487 27.539216 17.821901 0 26.266224-9.736758 27.309996-27.309996 0 0 16.865109-37.712927 46.341445-78.415954 6.918573-9.555633 14.307867-22.88522 35.586496-44.475957 18.730597-18.895349 56.661488-61.099566 68.273966-81.928964 11.601222-20.847817 13.654998-43.547819 13.654998-68.273966C681.33671 364.471992 677.096129 333.712431 644.13032 303.583227zM510.654352 65.826218c-244.706281 0-443.783339 199.083198-443.783339 443.764919 0 244.717538 199.077058 443.795619 443.783339 443.795619 244.701165 0 443.776176-199.11185 443.776176-443.795619C954.431551 264.909415 755.355517 65.826218 510.654352 65.826218zM510.654352 912.421762c-222.11782 0-402.817322-180.701548-402.817322-402.829602 0-222.094284 180.699502-402.799926 402.817322-402.799926 222.113727 0 402.812205 180.705642 402.812205 402.799926C913.466558 731.689515 732.768079 912.421762 510.654352 912.421762zM496.997308 762.219855c-18.853393 0-34.136471 15.284101-34.136471 34.136471s15.284101 34.136471 34.136471 34.136471 34.136471-15.284101 34.136471-34.136471S515.850701 762.219855 496.997308 762.219855z" p-id="7623" fill="#ffffff"></path></svg>