<?xml version="1.0" standalone="no"?><!DOCTYPE svg PUBLIC "-//W3C//DTD SVG 1.1//EN" "http://www.w3.org/Graphics/SVG/1.1/DTD/svg11.dtd"><svg t="1584445764090" class="icon" viewBox="0 0 1024 1024" version="1.1" xmlns="http://www.w3.org/2000/svg" p-id="3669" xmlns:xlink="http://www.w3.org/1999/xlink" width="128" height="128"><defs><style type="text/css"></style></defs><path d="M522.24 210.56m-85.12 0a85.12 85.12 0 1 0 170.24 0 85.12 85.12 0 1 0-170.24 0Z" fill="#ffffff" p-id="3670"></path><path d="M892.16 768a85.12 85.12 0 1 0-156.16-20.48 84.48 84.48 0 0 0 39.68 51.84 85.76 85.76 0 0 0 116.48-31.36zM832 552.32v22.4a147.84 147.84 0 0 1 64 19.2 371.2 371.2 0 0 0-221.44-384 147.2 147.2 0 0 1-14.72 64A308.48 308.48 0 0 1 832 552.32zM144 700.8a85.12 85.12 0 1 0 39.68-51.84 84.48 84.48 0 0 0-39.68 51.84zM152.32 593.28a149.12 149.12 0 0 1 64-19.2v-22.4a308.48 308.48 0 0 1 171.52-277.12 147.84 147.84 0 0 1-14.72-64 371.2 371.2 0 0 0-221.44 384zM743.04 851.84a147.2 147.2 0 0 1-47.36-44.16 308.48 308.48 0 0 1-346.88 0 147.84 147.84 0 0 1-47.36 44.16 370.56 370.56 0 0 0 442.24 0z" fill="#ffffff" p-id="3671"></path></svg>