<?xml version="1.0" encoding="UTF-8"?>
<svg width="750px" height="1334px" viewBox="0 0 750 1334" version="1.1" xmlns="http://www.w3.org/2000/svg" xmlns:xlink="http://www.w3.org/1999/xlink">
    <!-- Generator: Sketch 62 (91390) - https://sketch.com -->
    <title>商家认证备份 2</title>
    <desc>Created with Sketch.</desc>
    <defs>
        <linearGradient x1="50%" y1="0%" x2="38.0194047%" y2="100%" id="linearGradient-1">
            <stop stop-color="#D8FCFE" offset="0%"></stop>
            <stop stop-color="#E9FDFF" offset="100%"></stop>
        </linearGradient>
        <linearGradient x1="76.626165%" y1="46.7450845%" x2="12.0975284%" y2="92.7266415%" id="linearGradient-2">
            <stop stop-color="#53B9BF" offset="0%"></stop>
            <stop stop-color="#1D6C72" offset="100%"></stop>
        </linearGradient>
        <path d="M207.111368,551.425162 L76.1438955,586.542633 C65.1420054,589.492667 53.8334276,582.959035 50.88548,571.949356 C47.9375324,560.939678 54.4665429,549.623094 65.468433,546.67306 L94.2637159,538.951925 L94.2445658,538.871823 L96.6527156,538.226105 C107.654606,535.27607 114.183616,523.959487 111.235669,512.949809 C108.543837,502.896645 98.8810025,496.57556 88.8460279,497.799106 L26.8782226,514.415083 C15.8763324,517.365118 4.5677546,510.831485 1.61980703,499.821807 C-1.32814054,488.812128 5.20086991,477.495545 16.20276,474.545511 L88.614804,455.129027 C59.4865646,412.429933 42.4542373,360.81 42.4542373,305.209137 C42.4542373,158.174191 161.565292,38.9788168 308.496225,38.9788168 C336.81788,38.9788168 364.105903,43.4074549 389.706494,51.6104681 L578.209161,1.06557499 C590.861334,-2.32696462 603.866199,5.18671262 607.256339,17.8478428 C610.646478,30.508973 603.138116,43.5230437 590.485943,46.9155833 C555.088612,56.4069837 528.540614,63.525534 510.841949,68.2712342 C501.794863,70.6971097 487.957582,81.6810497 494.876222,99.3219934 C501.794863,116.962937 521.155943,114.320645 525.382361,113.187379 C543.308673,108.380645 570.198141,101.170543 606.050764,91.5570742 C618.702938,88.1645346 631.707802,95.6782118 635.097942,108.339342 C638.488082,121.000472 630.97972,134.014543 618.327546,137.407083 L531.896894,160.5825 C558.873057,202.225179 574.538213,251.886466 574.538213,305.209137 C574.538213,452.244083 455.427158,571.439458 308.496225,571.439458 C272.596663,571.439458 238.357861,564.323863 207.111368,551.425162 Z" id="path-3"></path>
        <path d="M190.92026,130.250978 L431.903665,130.250978 C448.47679,130.250978 461.911963,143.68615 461.911963,160.259276 L461.911963,580.250978 L461.911963,580.250978 L160.911963,580.250978 L160.911963,160.259276 C160.911963,143.68615 174.347135,130.250978 190.92026,130.250978 Z" id="path-5"></path>
        <filter x="-16.9%" y="-8.7%" width="133.9%" height="122.7%" filterUnits="objectBoundingBox" id="filter-6">
            <feOffset dx="0" dy="12" in="SourceAlpha" result="shadowOffsetOuter1"></feOffset>
            <feGaussianBlur stdDeviation="15" in="shadowOffsetOuter1" result="shadowBlurOuter1"></feGaussianBlur>
            <feColorMatrix values="0 0 0 0 0.390332313   0 0 0 0 0.369823426   0 0 0 0 0.952275815  0 0 0 1 0" type="matrix" in="shadowBlurOuter1"></feColorMatrix>
        </filter>
        <linearGradient x1="50%" y1="0%" x2="50%" y2="100%" id="linearGradient-7">
            <stop stop-color="#8BD9DF" offset="0%"></stop>
            <stop stop-color="#E5F9FB" offset="100%"></stop>
        </linearGradient>
        <rect id="path-8" x="0" y="0" width="268.386233" height="392.282841"></rect>
        <linearGradient x1="50%" y1="28.1960073%" x2="12.0975284%" y2="71.8039927%" id="linearGradient-10">
            <stop stop-color="#96D7DB" offset="0%"></stop>
            <stop stop-color="#BDE6E9" offset="100%"></stop>
        </linearGradient>
        <linearGradient x1="-13.8518904%" y1="54.605865%" x2="76.051169%" y2="49.6475005%" id="linearGradient-11">
            <stop stop-color="#1D6C72" offset="0%"></stop>
            <stop stop-color="#92ECF3" offset="100%"></stop>
        </linearGradient>
        <linearGradient x1="50%" y1="31.4744802%" x2="12.0975284%" y2="68.5255198%" id="linearGradient-12">
            <stop stop-color="#46A7AD" offset="0%"></stop>
            <stop stop-color="#1D6C72" offset="100%"></stop>
        </linearGradient>
        <linearGradient x1="20.4102721%" y1="30.2084808%" x2="82.153905%" y2="69.1292389%" id="linearGradient-13">
            <stop stop-color="#1D6C72" offset="0%"></stop>
            <stop stop-color="#71DBE3" offset="100%"></stop>
        </linearGradient>
        <linearGradient x1="20.4102721%" y1="30.2084808%" x2="82.153905%" y2="69.1292389%" id="linearGradient-14">
            <stop stop-color="#1D6C72" offset="0%"></stop>
            <stop stop-color="#77D9E0" offset="100%"></stop>
        </linearGradient>
        <linearGradient x1="50.000033%" y1="-1.28054305e-14%" x2="50.000033%" y2="100.000016%" id="linearGradient-15">
            <stop stop-color="#EBEAEA" offset="0%"></stop>
            <stop stop-color="#17EFEB" offset="82.31%"></stop>
            <stop stop-color="#70EFEB" offset="100%"></stop>
        </linearGradient>
        <linearGradient x1="47.9427938%" y1="99.7605102%" x2="52.3153017%" y2="-1.02643123%" id="linearGradient-16">
            <stop stop-color="#0077BF" offset="0.2579479%"></stop>
            <stop stop-color="#00BF82" offset="100%"></stop>
        </linearGradient>
        <linearGradient x1="5.84656237%" y1="47.1393616%" x2="94.4157469%" y2="51.496715%" id="linearGradient-17">
            <stop stop-color="#FFFFFF" offset="39.49%"></stop>
            <stop stop-color="#000000" offset="100%"></stop>
        </linearGradient>
        <linearGradient x1="49.9999998%" y1="2.77555756e-14%" x2="49.9999998%" y2="99.9989502%" id="linearGradient-18">
            <stop stop-color="#FFA55C" offset="29.49%"></stop>
            <stop stop-color="#BF0025" offset="100%"></stop>
        </linearGradient>
        <linearGradient x1="-0.294749511%" y1="49.9731689%" x2="100.29469%" y2="49.9731689%" id="linearGradient-19">
            <stop stop-color="#FFFFFF" offset="0%"></stop>
            <stop stop-color="#F5F5F5" offset="26.41%"></stop>
            <stop stop-color="#000000" offset="98.46%"></stop>
        </linearGradient>
    </defs>
    <g id="商家认证备份-2" stroke="none" stroke-width="1" fill="none" fill-rule="evenodd">
        <rect fill="#F7F7F7" x="0" y="0" width="750" height="1334"></rect>
        <rect id="矩形" fill="url(#linearGradient-1)" x="0" y="0" width="750" height="1334"></rect>
        <g id="矩形-+-矩形-+-矩形-copy-6-+-矩形-copy-8-+-矩形-copy-12-+-矩形-copy-13-+-矩形-copy-14-+-矩形-copy-15-+-矩形-copy-5-+-矩形-copy-7-+-矩形-copy-9-+-矩形-copy-10-+-矩形-copy-11-Mask-Mask" transform="translate(67.000000, 263.000000)">
            <mask id="mask-4" fill="white">
                <use xlink:href="#path-3"></use>
            </mask>
            <use id="Mask" fill="url(#linearGradient-2)" xlink:href="#path-3"></use>
            <g id="矩形" mask="url(#mask-4)">
                <use fill="black" fill-opacity="1" filter="url(#filter-6)" xlink:href="#path-5"></use>
                <use fill="#E2ECFF" fill-rule="evenodd" xlink:href="#path-5"></use>
            </g>
            <g id="矩形-+-矩形-copy-6-+-矩形-copy-8-+-矩形-copy-12-+-矩形-copy-13-+-矩形-copy-14-+-矩形-copy-15-+-矩形-copy-5-+-矩形-copy-7-+-矩形-copy-9-+-矩形-copy-10-+-矩形-copy-11-Mask" mask="url(#mask-4)">
                <g transform="translate(177.911963, 188.250978)">
                    <mask id="mask-9" fill="white">
                        <use xlink:href="#path-8"></use>
                    </mask>
                    <use id="Mask" stroke="none" fill="url(#linearGradient-7)" fill-rule="evenodd" xlink:href="#path-8"></use>
                    <path d="M-1.86517468e-14,357.388716 L157.934976,253.951524 L268.386233,250.815227 L268.386233,378.321838 C196.536338,397.064835 149.481122,406.686209 127.220586,407.185962 C121.585762,407.312465 116.340071,407.18632 111.483512,406.807526 C94.2368371,405.46235 28.5961174,437.024632 9.49555381,428.396992 C-2.6047956,422.931319 -5.7699802,399.261893 -1.86517468e-14,357.388716 Z" id="路径-3" stroke="none" fill="url(#linearGradient-10)" fill-rule="evenodd" mask="url(#mask-9)"></path>
                </g>
            </g>
        </g>
        <path d="M156.529424,270.531034 L316.493663,227.858714 C324.487669,225.72622 332.699279,230.467172 334.849522,238.456422 L336.091848,243.072294 C338.245472,251.074107 333.504578,259.306717 325.502765,261.460341 C325.492038,261.463228 325.481309,261.466103 325.470576,261.468966 L165.506337,304.141286 C157.512331,306.27378 149.300721,301.532828 147.150478,293.543578 L145.908152,288.927706 C143.754528,280.925893 148.495422,272.693283 156.497235,270.539659 C156.507962,270.536772 156.518691,270.533897 156.529424,270.531034 Z" id="矩形" fill="url(#linearGradient-11)"></path>
        <path d="M602.475074,783.397171 L656.47894,768.895451 C664.481979,766.746385 672.711886,771.491969 674.860951,779.495008 C674.862358,779.500248 674.863763,779.505488 674.865164,779.51073 L676.128696,784.236539 C678.267437,792.235765 673.521828,800.455412 665.524926,802.602829 L611.52106,817.104549 C603.518021,819.253615 595.288114,814.508031 593.139049,806.504992 C593.137642,806.499752 593.136237,806.494512 593.134836,806.48927 L591.871304,801.763461 C589.732563,793.764235 594.478172,785.544588 602.475074,783.397171 Z" id="矩形-copy-3" fill-opacity="0.51" fill="url(#linearGradient-12)"></path>
        <path d="M81.9273842,360.371678 L102.99951,354.652914 C112.40808,352.099523 122.105166,357.656743 124.658557,367.065313 C124.668389,367.101541 124.678105,367.1378 124.687706,367.17409 L126.514163,374.078053 C128.996238,383.460233 123.43877,393.086442 114.072616,395.628322 L93.0004898,401.347086 C83.5919198,403.900477 73.8948342,398.343257 71.3414428,388.934687 C71.3316109,388.898459 71.3218946,388.8622 71.312294,388.82591 L69.4858366,381.921947 C67.0037616,372.539767 72.56123,362.913558 81.9273842,360.371678 Z" id="矩形-copy" fill-opacity="0.58" fill="url(#linearGradient-13)"></path>
        <path d="M61.0154215,869.1207 L82.0875474,863.401936 C91.4961174,860.848545 101.193203,866.405765 103.746594,875.814335 C103.756426,875.850563 103.766143,875.886822 103.775743,875.923112 L105.602201,882.827075 C108.084276,892.209255 102.526807,901.835464 93.160653,904.377345 L72.088527,910.096108 C62.6799571,912.649499 52.9828714,907.092279 50.42948,897.683709 C50.4196481,897.647481 50.4099318,897.611222 50.4003312,897.574932 L48.5738738,890.670969 C46.0917988,881.288789 51.6492672,871.66258 61.0154215,869.1207 Z" id="矩形-copy-2" fill-opacity="0.96" fill="url(#linearGradient-14)"></path>
        <g id="编组" transform="translate(302.000000, 594.000000)">
            <g id="编组-4备份" fill="#FFFFFF">
                <rect id="矩形" x="0" y="0" width="145.768194" height="145.786802" rx="20"></rect>
            </g>
            <g id="logo" transform="translate(31.000000, 13.000000)" fill-rule="nonzero" stroke-width="0.5">
                <path d="M40.6551724,5.12068966 C40.8103448,5.37931034 40.7327586,5.63793103 40.7456897,5.88362069 C40.7456897,10.6939655 40.7715517,15.4913793 40.7327586,20.3017241 C40.7068966,23.0301724 40.0732759,25.6681034 39.2327586,28.2543103 C38.4827586,30.5689655 37.3318966,32.6767241 36.0775862,34.7456897 C35.4051724,35.8448276 34.5646552,36.8405172 33.6724138,37.7715517 C31.5387931,39.9956897 29.4439655,42.2456897 27.5043103,44.637931 C26.637931,45.6982759 25.9137931,46.875 25.125,48.012931 C22.6163793,51.6206897 20.7931034,55.5646552 19.6810345,59.7931034 C18.8922414,62.8060345 18.4008621,65.8836207 18.3491379,69.0387931 C18.3103448,71.9094828 18.6336207,74.7155172 19.112069,77.5086207 C19.5517241,80.1077586 20.4827586,82.5775862 21.5172414,84.9956897 C22.7844828,87.9439655 24.387931,90.6982759 26.4051724,93.1810345 C29.3017241,96.737069 32.5732759,99.8663793 36.5301724,102.284483 C39.2198276,103.926724 42.012931,105.271552 44.987069,106.215517 C47.3922414,106.978448 49.8232759,107.599138 52.3706897,107.715517 C53.8060345,107.780172 55.2413793,108.012931 56.6896552,107.948276 C60.6594828,107.793103 64.5775862,107.37931 68.3663793,106.034483 C71.7543103,104.831897 74.9482759,103.280172 77.9094828,101.237069 C78.012931,101.172414 78.0905172,101.043103 78.2974138,101.107759 C77.8060345,102.168103 77.0948276,103.073276 76.3706897,103.952586 C73.6034483,107.314655 70.4224138,110.224138 66.7758621,112.616379 C64.3836207,114.193966 61.8491379,115.512931 59.1853448,116.599138 C56.237069,117.801724 53.1982759,118.668103 50.0818966,119.237069 C46.8103448,119.831897 43.487069,120.103448 40.1767241,119.793103 C35.9741379,119.392241 31.8491379,118.538793 27.8663793,117.012931 C23.612069,115.396552 19.7327586,113.146552 16.1896552,110.353448 C13.4482759,108.193966 11.0043103,105.698276 8.88362069,102.905172 C6.60775862,99.9051724 4.77155172,96.6594828 3.31034483,93.1939655 C1.92672414,89.9224138 1.06034483,86.5215517 0.413793103,83.0301724 C0.025862069,80.9482759 0.0387931034,78.8663793 0.0387931034,76.7974138 C0.0387931034,75.1810345 -0.0129310345,73.5775862 0.142241379,71.9612069 C0.297413793,70.3318966 0.620689655,68.7284483 0.956896552,67.125 C1.78448276,63.1422414 3.25862069,59.3663793 5.13362069,55.7586207 C7.18965517,51.7887931 9.65948276,48.0775862 12.4137931,44.5603448 C13.887931,42.6724138 15.362069,40.7974138 16.9137931,38.987069 C18.362069,37.3060345 19.7974138,35.625 21.3103448,33.9956897 C23.3922414,31.7586207 25.5775862,29.612069 27.6465517,27.362069 C29.5474138,25.2801724 31.2025862,22.9913793 32.7801724,20.6508621 C33.9310345,18.9568966 35.0172414,17.2241379 36.012931,15.4396552 C37.7198276,12.362069 39.1939655,9.18103448 40.3448276,5.85775862 C40.3965517,5.625 40.4094828,5.32758621 40.6551724,5.12068966 Z" id="路径" stroke="#CCFFFF" fill="url(#linearGradient-15)"></path>
                <path d="M83.0172414,83.8448276 C82.6163793,85.6163793 82.2155172,87.4137931 81.5818966,89.0948276 C81.0387931,90.5431034 80.1336207,91.8103448 79.1896552,93.012931 C76.6034483,96.3103448 73.1637931,98.7543103 69.4913793,100.577586 C66.2844828,102.155172 62.8448276,103.099138 59.3275862,103.525862 C58.125,103.668103 56.8706897,103.849138 55.6681034,103.732759 C49.6163793,103.241379 43.8491379,101.431034 38.8318966,97.7586207 C35.612069,95.3922414 32.8448276,92.4181034 30.6465517,88.9396552 C28.8491379,86.0689655 27.5689655,82.887931 26.5991379,79.6034483 C25.8491379,77.1077586 25.6551724,74.4827586 25.3060345,71.8965517 C25.2155172,71.2887931 25.3706897,70.6034483 25.512931,69.9956897 C25.9137931,70.7586207 26.1982759,71.625 26.637931,72.375 C27.9698276,74.637931 29.4698276,76.7327586 31.3706897,78.4784483 C33.8405172,80.7672414 36.6465517,82.3060345 39.8405172,83.0818966 C42.012931,83.5991379 44.2241379,83.6767241 46.4353448,83.5474138 C48.8922414,83.4051724 51.2456897,82.8103448 53.4827586,81.762931 C57.0258621,80.1077586 59.8836207,77.5344828 62.3017241,74.3663793 C63.4267241,72.8793103 64.4741379,71.3146552 65.3793103,69.6465517 C66.9698276,66.737069 68.262931,63.6724138 69.1551724,60.4396552 C70.0732759,57.0905172 70.5905172,53.6637931 70.6939655,50.1853448 C70.7456897,48.5301724 70.512931,46.9008621 70.3965517,45.2327586 C70.3318966,44.2241379 70.137931,43.2543103 69.9827586,42.2327586 C69.9568966,42.0517241 69.9310345,41.7801724 70.0086207,41.5991379 C70.5387931,42.3362069 71.1594828,43.0732759 71.6637931,43.8362069 C74.1594828,47.5603448 76.5646552,51.3491379 78.5560345,55.3836207 C80.5474138,59.4181034 82.0991379,63.6077586 82.9267241,68.0689655 C83.4956897,71.0431034 83.7413793,74.0560345 83.637931,77.1077586 C83.5732759,79.3836207 83.5086207,81.6594828 83.0172414,83.8448276 Z" id="路径" stroke="url(#linearGradient-17)" fill="url(#linearGradient-16)"></path>
                <path d="M65.2241379,52.9913793 C65.1077586,52.112069 64.9396552,51.2456897 64.6939655,50.3793103 C63.8663793,47.637931 62.5991379,45.1034483 60.9568966,42.7241379 C58.3189655,38.8965517 55.125,35.5603448 51.8534483,32.262931 C49.8232759,30.2198276 48.375,27.7758621 47.237069,25.1508621 C46.3836207,23.1982759 45.6336207,21.2198276 45.387931,19.112069 C45.1810345,17.3793103 44.8836207,15.6336207 44.8965517,13.887931 C44.9094828,10.7198276 44.9094828,7.52586207 44.8836207,4.35775862 C44.8706897,2.92241379 44.7413793,1.48706897 44.9482759,0.025862069 C45.1293103,0.11637931 45.1551724,0.271551724 45.2068966,0.413793103 C46.1767241,3.12931034 47.2758621,5.80603448 48.5948276,8.40517241 C50.0689655,11.2887931 51.75,14.0431034 53.612069,16.7198276 C55.3836207,19.2543103 57.4396552,21.5431034 59.5086207,23.8448276 C60.6206897,25.0732759 61.487069,26.4827586 62.2887931,27.9051724 C64.1767241,31.2413793 65.5215517,34.7715517 66.1681034,38.5344828 C66.5431034,40.6551724 66.8534483,42.7887931 66.75,44.9353448 C66.6206897,47.5991379 66.1681034,50.237069 65.4698276,52.8362069 C65.4181034,52.887931 65.3922414,52.9784483 65.2241379,52.9913793 Z" id="路径" stroke="url(#linearGradient-19)" fill="url(#linearGradient-18)"></path>
            </g>
        </g>
    </g>
</svg>