<?xml version="1.0" standalone="no"?><!DOCTYPE svg PUBLIC "-//W3C//DTD SVG 1.1//EN" "http://www.w3.org/Graphics/SVG/1.1/DTD/svg11.dtd"><svg t="1586509502528" class="icon" viewBox="0 0 1024 1024" version="1.1" xmlns="http://www.w3.org/2000/svg" p-id="1512" xmlns:xlink="http://www.w3.org/1999/xlink" width="128" height="128"><defs><style type="text/css"></style></defs><path d="M290.133333 426.666667m-51.2 0a51.2 51.2 0 1 0 102.4 0 51.2 51.2 0 1 0-102.4 0Z" p-id="1513" fill="#2D6A65"></path><path d="M409.6 682.666667m-68.266667 0a68.266667 68.266667 0 1 0 136.533334 0 68.266667 68.266667 0 1 0-136.533334 0Z" p-id="1514" fill="#2D6A65"></path><path d="M648.533333 341.333333m-68.266666 0a68.266667 68.266667 0 1 0 136.533333 0 68.266667 68.266667 0 1 0-136.533333 0Z" p-id="1515" fill="#2D6A65"></path><path d="M768 597.333333m-51.2 0a51.2 51.2 0 1 0 102.4 0 51.2 51.2 0 1 0-102.4 0Z" p-id="1516" fill="#2D6A65"></path><path d="M744.789333 608.1536l-100.693333-215.825067-213.538133 305.015467a25.6 25.6 0 0 1-44.168534-3.857067l-119.466666-256a25.6 25.6 0 0 1 46.421333-21.640533l100.693333 215.825067 213.538134-305.015467a25.6 25.6 0 0 1 44.168533 3.857067l119.466667 256a25.6 25.6 0 0 1-46.421334 21.640533zM512 930.133333C281.088 930.133333 93.866667 742.912 93.866667 512S281.088 93.866667 512 93.866667 930.133333 281.088 930.133333 512 742.912 930.133333 512 930.133333z m0-51.2c202.6496 0 366.933333-164.283733 366.933333-366.933333S714.6496 145.066667 512 145.066667 145.066667 309.3504 145.066667 512 309.3504 878.933333 512 878.933333z" p-id="1517" fill="#2D6A65"></path></svg>