<?xml version="1.0" encoding="UTF-8"?>
<svg width="48px" height="48px" viewBox="0 0 48 48" version="1.1" xmlns="http://www.w3.org/2000/svg" xmlns:xlink="http://www.w3.org/1999/xlink">
    <!-- Generator: Sketch 62 (91390) - https://sketch.com -->
    <title>融资</title>
    <desc>Created with Sketch.</desc>
    <g id="融资" stroke="none" stroke-width="1" fill="none" fill-rule="evenodd">
        <g id="编组" transform="translate(6.000000, 6.000000)">
            <path d="M17.8714286,33.1928571 C9.58413575,33.1928571 2.87142857,26.4346154 2.87142857,18.1928571 C2.87142857,9.86868132 9.58413575,3.19285714 17.8714286,3.19285714 C26.1587214,3.19285714 32.8714286,9.9510989 32.8714286,18.1928571 C32.8714286,26.517033 26.1587214,33.1928571 17.8714286,33.1928571 Z" id="路径" fill-opacity="0.8" fill="#2EABB4"></path>
            <path d="M1.41428571,24.3 C0.642857143,22.2428571 0.257142857,20.1214286 0.257142857,17.9357143 C0.257142857,9.70714286 5.85,2.50714286 13.6285714,0.514285714" id="路径" stroke="#000000" stroke-width="2" stroke-linecap="round"></path>
            <path d="M22.05,0.514285714 C29.8285714,2.44285714 35.4214286,9.64285714 35.4214286,17.9357143 C35.4214286,20.1214286 35.0357143,22.2428571 34.2642857,24.2357143" id="路径" stroke="#000000" stroke-width="2" stroke-linecap="round"></path>
            <path d="M30.5357143,30.3428571 C27.1928571,33.8785714 22.6928571,35.8714286 17.8714286,35.8714286 C13.05,35.8714286 8.55,33.9428571 5.20714286,30.3428571" id="路径" stroke="#000000" stroke-width="2" stroke-linecap="round"></path>
            <g transform="translate(11.857143, 12.214286)" id="路径" stroke="#000000" stroke-linecap="round" stroke-width="2">
                <g>
                    <line x1="1.45" y1="0.0642857143" x2="5.5" y2="4.69285714"></line>
                    <line x1="10.5785714" y1="0.0642857143" x2="6.52857143" y2="4.69285714"></line>
                    <line x1="6.01428571" y1="5.46428571" x2="6.01428571" y2="11.8928571"></line>
                    <line x1="1.96428571" y1="9" x2="10.0642857" y2="9"></line>
                    <line x1="0.228571429" y1="4.69285714" x2="11.7357143" y2="4.69285714"></line>
                </g>
            </g>
        </g>
    </g>
</svg>