<?xml version="1.0" encoding="utf-8"?>
<!-- Generator: Adobe Illustrator 22.0.0, SVG Export Plug-In . SVG Version: 6.00 Build 0)  -->
<svg version="1.1" id="图层_1" xmlns="http://www.w3.org/2000/svg" xmlns:xlink="http://www.w3.org/1999/xlink" x="0px" y="0px"
	 viewBox="0 0 2000 2000" style="enable-background:new 0 0 2000 2000;" xml:space="preserve">
<style type="text/css">
	.st0{fill:url(#SVGID_1_);stroke:#CCFFFF;stroke-miterlimit:10;}
	.st1{fill:url(#SVGID_2_);stroke:url(#SVGID_3_);stroke-miterlimit:10;}
	.st2{fill:url(#SVGID_4_);stroke:url(#SVGID_5_);stroke-miterlimit:10;}
</style>
<g>
	
		<linearGradient id="SVGID_1_" gradientUnits="userSpaceOnUse" x1="1034.8682" y1="1605.4" x2="1034.8682" y2="717.5981" gradientTransform="matrix(1 0 0 -1 0 2000)">
		<stop  offset="0" style="stop-color:#EBEAEA"/>
		<stop  offset="0.8231" style="stop-color:#17EFEB"/>
		<stop  offset="1" style="stop-color:#70EFEB"/>
	</linearGradient>
	<path class="st0" d="M1046.4,394.6c1.2,2,0.6,4,0.7,5.9c0,37.2,0.2,74.3-0.1,111.5c-0.2,21.1-5.1,41.5-11.6,61.5
		c-5.8,17.9-14.7,34.2-24.4,50.2c-5.2,8.5-11.7,16.2-18.6,23.4c-16.5,17.2-32.7,34.6-47.7,53.1c-6.7,8.2-12.3,17.3-18.4,26.1
		c-19.4,27.9-33.5,58.4-42.1,91.1c-6.1,23.3-9.9,47.1-10.3,71.5c-0.3,22.2,2.2,43.9,5.9,65.5c3.4,20.1,10.6,39.2,18.6,57.9
		c9.8,22.8,22.2,44.1,37.8,63.3c22.4,27.5,47.7,51.7,78.3,70.4c20.8,12.7,42.4,23.1,65.4,30.4c18.6,5.9,37.4,10.7,57.1,11.6
		c11.1,0.5,22.2,2.3,33.4,1.8c30.7-1.2,61-4.4,90.3-14.8c26.2-9.3,50.9-21.3,73.8-37.1c0.8-0.5,1.4-1.5,3-1
		c-3.8,8.2-9.3,15.2-14.9,22c-21.4,26-46,48.5-74.2,67c-18.5,12.2-38.1,22.4-58.7,30.8c-22.8,9.3-46.3,16-70.4,20.4
		c-25.3,4.6-51,6.7-76.6,4.3c-32.5-3.1-64.4-9.7-95.2-21.5c-32.9-12.5-62.9-29.9-90.3-51.5c-21.2-16.7-40.1-36-56.5-57.6
		c-17.6-23.2-31.8-48.3-43.1-75.1c-10.7-25.3-17.4-51.6-22.4-78.6c-3-16.1-2.9-32.2-2.9-48.2c0-12.5-0.4-24.9,0.8-37.4
		c1.2-12.6,3.7-25,6.3-37.4c6.4-30.8,17.8-60,32.3-87.9c15.9-30.7,35-59.4,56.3-86.6c11.4-14.6,22.8-29.1,34.8-43.1
		c11.2-13,22.3-26,34-38.6c16.1-17.3,33-33.9,49-51.3c14.7-16.1,27.5-33.8,39.7-51.9c8.9-13.1,17.3-26.5,25-40.3
		c13.2-23.8,24.6-48.4,33.5-74.1C1044.4,398.5,1044.5,396.2,1046.4,394.6z"/>
	<g>
		
			<linearGradient id="SVGID_2_" gradientUnits="userSpaceOnUse" x1="1164.2205" y1="1165.5336" x2="1164.2205" y2="671.5771" gradientTransform="matrix(0.9687 4.475287e-02 -4.532146e-02 0.981 67.7457 -39.1543)">
			<stop  offset="2.579479e-03" style="stop-color:#0077BF"/>
			<stop  offset="1" style="stop-color:#00BF82"/>
		</linearGradient>
		
			<linearGradient id="SVGID_3_" gradientUnits="userSpaceOnUse" x1="930.1614" y1="918.3152" x2="1398.2794" y2="918.3152" gradientTransform="matrix(0.9687 4.475287e-02 -4.532146e-02 0.981 67.7457 -39.1543)">
			<stop  offset="0.3949" style="stop-color:#FFFFFF"/>
			<stop  offset="1" style="stop-color:#000000"/>
		</linearGradient>
		<path class="st1" d="M1374,1003.4c-3.1,13.7-6.2,27.6-11.1,40.6c-4.2,11.2-11.2,21-18.5,30.3c-20,25.5-46.6,44.4-75,58.5
			c-24.8,12.2-51.4,19.5-78.6,22.8c-9.3,1.1-19,2.5-28.3,1.6c-46.8-3.8-91.4-17.8-130.2-46.2c-24.9-18.3-46.3-41.3-63.3-68.2
			c-13.9-22.2-23.8-46.8-31.3-72.2c-5.8-19.3-7.3-39.6-10-59.6c-0.7-4.7,0.5-10,1.6-14.7c3.1,5.9,5.3,12.6,8.7,18.4
			c10.3,17.5,21.9,33.7,36.6,47.2c19.1,17.7,40.8,29.6,65.5,35.6c16.8,4,33.9,4.6,51,3.6c19-1.1,37.2-5.7,54.5-13.8
			c27.4-12.8,49.5-32.7,68.2-57.2c8.7-11.5,16.8-23.6,23.8-36.5c12.3-22.5,22.3-46.2,29.2-71.2c7.1-25.9,11.1-52.4,11.9-79.3
			c0.4-12.8-1.4-25.4-2.3-38.3c-0.5-7.8-2-15.3-3.2-23.2c-0.2-1.4-0.4-3.5,0.2-4.9c4.1,5.7,8.9,11.4,12.8,17.3
			c19.3,28.8,37.9,58.1,53.3,89.3c15.4,31.2,27.4,63.6,33.8,98.1c4.4,23,6.3,46.3,5.5,69.9C1378.3,968.9,1377.8,986.5,1374,1003.4z"
			/>
	</g>
	
		<linearGradient id="SVGID_4_" gradientUnits="userSpaceOnUse" x1="1163.5278" y1="1644.8" x2="1163.5278" y2="1235.2043" gradientTransform="matrix(1 0 0 -1 0 2000)">
		<stop  offset="0.2949" style="stop-color:#FFA55C"/>
		<stop  offset="1" style="stop-color:#BF0025"/>
	</linearGradient>
	
		<linearGradient id="SVGID_5_" gradientUnits="userSpaceOnUse" x1="1078.1998" y1="1440.1099" x2="1248.8557" y2="1440.1099" gradientTransform="matrix(1 0 0 -1 0 2000)">
		<stop  offset="0" style="stop-color:#FFFFFF"/>
		<stop  offset="0.2641" style="stop-color:#F5F5F5"/>
		<stop  offset="0.9846" style="stop-color:#000000"/>
	</linearGradient>
	<path class="st2" d="M1236.4,764.8c-0.9-6.8-2.2-13.5-4.1-20.2c-6.4-21.2-16.2-40.8-28.9-59.2c-20.4-29.6-45.1-55.4-70.4-80.9
		c-15.7-15.8-26.9-34.7-35.7-55c-6.6-15.1-12.4-30.4-14.3-46.7c-1.6-13.4-3.9-26.9-3.8-40.4c0.1-24.5,0.1-49.2-0.1-73.7
		c-0.1-11.1-1.1-22.2,0.5-33.5c1.4,0.7,1.6,1.9,2,3c7.5,21,16,41.7,26.2,61.8c11.4,22.3,24.4,43.6,38.8,64.3
		c13.7,19.6,29.6,37.3,45.6,55.1c8.6,9.5,15.3,20.4,21.5,31.4c14.6,25.8,25,53.1,30,82.2c2.9,16.4,5.3,32.9,4.5,49.5
		c-1,20.6-4.5,41-9.9,61.1C1237.9,764,1237.7,764.7,1236.4,764.8z"/>
</g>
</svg>
